# xmcd CD database file
#
# Track frame offsets:
#	150
#	35557
#	84822
#	115150
#	134107
#	149600
#	168057
#	180575
#	196057
#	218382
#	256725
#	270267
#	289650
#	309275
#
# Disc length: 4656 seconds
#
# Revision: 0
# Processed by: cddbd v1.4PL0 Copyright (c) Steve Scherf et al.
# Submitted via: Feurio! 1.65 - http://www.feurio.com
#
DISCID=b7122e0e
DTITLE=Various Artist - 2. Blues Festival Bonn '87
DYEAR=1900
DGENRE=
TTITLE0=Stan Webb's Chicken Shack - The Thrill Has Gone
TTITLE1=Stan Webb's Chicken Shack - Have You Ever Loved A Woman
TTITLE2=Stan Webb's Chicken Shack - I'd Rather Go Blind
TTITLE3=Dr. Feelgood - Down At The Doctors
TTITLE4=Dr. Feelgood - See You Later Alligator
TTITLE5=Dr. Feelgood - Back In The Night
TTITLE6=Dr. Feelgood - Milk And Alcohol
TTITLE7=Man - What A Night
TTITLE8=Man - Jumping Like A Kangaroo
TTITLE9=Man - Bananas
TTITLE10=Canned Heat - Going Up The Country
TTITLE11=Canned Heat - Rollin' And Tumblin'
TTITLE12=Canned Heat - Amphetamine Annie
TTITLE13=Jam Session - Dust My Broom
EXTD=
EXTT0=
EXTT1=
EXTT2=
EXTT3=
EXTT4=
EXTT5=
EXTT6=
EXTT7=
EXTT8=
EXTT9=
EXTT10=
EXTT11=
EXTT12=
EXTT13=
PLAYORDER=
